inDegrees=yes
name=ik_S52_A12_T02
DataType=double
version=3
OpenSimVersion=4.3-2021-08-27-4bc7ad9
endheader
time	pelvis_tilt	pelvis_list	pelvis_rotation	pelvis_tx	pelvis_ty	pelvis_tz	hip_flexion_r	hip_adduction_r	hip_rotation_r	knee_angle_r	knee_angle_r_beta	ankle_angle_r	subtalar_angle_r	mtp_angle_r	hip_flexion_l	hip_adduction_l	hip_rotation_l	knee_angle_l	knee_angle_l_beta	ankle_angle_l	subtalar_angle_l	mtp_angle_l	lumbar_extension	lumbar_bending	lumbar_rotation	arm_flex_r	arm_add_r	arm_rot_r	elbow_flex_r	pro_sup_r	wrist_flex_r	wrist_dev_r	arm_flex_l	arm_add_l	arm_rot_l	elbow_flex_l	pro_sup_l	wrist_flex_l	wrist_dev_l
0	0	0	0	0	0.9399999999999999	0	0	0	0	0	0	0	0	0	0	0	0	0	0	0	0	0	0	0	0	0	0	0	0	89.99999999963507	0	0	0	0	0	0	89.99999999869995	0	0
0.02	-1.175139720900114	-0.7283171941545425	25.80415660709437	0	0.9399999999999999	0	1.920912514522681	-0.9026977551501082	-0.6463385913119499	2.996680952036197	0.05230194924482991	0	0	0	1.920912514522681	-0.9026977551501082	-0.6463385913119499	2.996680952036197	0.05230194924482991	0	0	0	-0.8843316312052498	-0.6436485836209253	11.12119979215989	7.502777511755207	-6.993470756540396	-5.78672832173697	6.623795170808567	126.5676551358124	0	0	7.91923950100125	-5.333960146231983	-3.050238899442293	8.463208671139943	120.1551568193436	0	0
0.04	-1.000731014226305	-0.9439698752076754	30.75184124067597	0	0.9399999999999999	0	44.18062351210648	-14.57402475735931	-13.10529694465204	49.62966705956329	0.8662010968579521	0	0	0	44.18062351210648	-14.57402475735931	-13.10529694465204	49.62966705956329	0.8662010968579521	0	0	0	-0.8647124424051752	-0.2602999268037313	6.19768970386393	7.380684378719369	-7.025136093027717	-5.774461717962761	6.645069382172085	126.5716119540623	0	0	7.778009262924031	-5.333081312786462	-3.067036004945872	8.472823455208523	120.1623359157401	0	0
0.06	-1.004847960422731	-0.9442923773200962	30.75323341635592	0	0.9399999999999999	0	44.18269227260556	-14.5480628512111	-13.09127731335244	49.6393573416548	0.866370224185896	0	0	0	44.18269227260556	-14.5480628512111	-13.09127731335244	49.6393573416548	0.866370224185896	0	0	0	-0.8694064577541952	-0.258367909727882	6.178188034776094	7.398954334929673	-7.03632033423647	-5.742380212384854	6.642275883831648	126.618088817569	0	0	7.782961138325758	-5.321002803108361	-3.096213611424209	8.46601850082431	120.1432946349409	0	0
0.08	-1.019845447475131	-0.9634525633989717	30.76948971552407	0	0.9399999999999999	0	44.184676906511	-14.51880027318474	-13.07680275255788	49.64850033687539	0.8665297995559894	0	0	0	44.184676906511	-14.51880027318474	-13.07680275255788	49.64850033687539	0.8665297995559894	0	0	0	-0.8927239889461496	-0.2675613381514222	6.174714667428214	7.410931513066066	-7.035951179707983	-5.711657664085144	6.768986697486057	126.5567845280245	0	0	7.788312079736831	-5.332945548198136	-3.08437828916745	8.59726731845346	120.0860714776649	0	0
0.1	-0.9945456832558368	-0.9467643123014483	30.78161861704538	0	0.9399999999999999	0	44.18572915939522	-14.50603119051074	-13.06975628319916	49.65343496910763	0.866615925135817	0	0	0	44.18572915939522	-14.50603119051074	-13.06975628319916	49.65343496910763	0.866615925135817	0	0	0	-0.8629903491447163	-0.2661411666896547	6.152990151336838	7.375668682314869	-7.015809065101578	-5.685077727174132	6.640820176163893	126.6232736918452	0	0	7.745391629645668	-5.331900558658308	-3.136516938071131	8.473938604365028	120.1123172070655	0	0
0.12	-0.9712194309595831	-0.9310061629637616	30.81080365380112	0	0.9399999999999999	0	44.18801975214794	-14.47966738279261	-13.05482899033682	49.66425889994605	0.8668048383669557	0	0	0	44.18801975214794	-14.47966738279261	-13.05482899033682	49.66425889994605	0.8668048383669557	0	0	0	-0.8358276180028957	-0.2648283989398117	6.144847575196281	7.330660549824089	-7.016465529634798	-5.641522676460423	6.598282667032803	126.5862931614642	0	0	7.704891614077249	-5.327561296699829	-3.109042590225653	8.461829215217053	120.0806199979789	0	0
0.14	-0.9834232230689762	-0.9429327298793938	30.82146112889188	0	0.9399999999999999	0	44.18962900368302	-14.45407294924046	-13.04264461187347	49.67160462487579	0.8669330454529254	0	0	0	44.18962900368302	-14.45407294924046	-13.04264461187347	49.67160462487579	0.8669330454529254	0	0	0	-0.8529193983420512	-0.2691442972223054	6.142159767992799	7.320373618660706	-7.030284105241996	-5.628402815714775	6.742630233048789	126.5300925995621	0	0	7.701352982819953	-5.338445639270442	-3.111490835834437	8.600977920637861	120.0402251340905	0	0
0.16	-0.9602074205821328	-0.93866494290066	30.81681969387913	0	0.9399999999999999	0	44.1937529161703	-14.38337722678469	-13.0100139614941	49.69017193272288	0.8672571061080886	0	0	0	44.1937529161703	-14.38337722678469	-13.0100139614941	49.69017193272288	0.8672571061080886	0	0	0	-0.8326609534322349	-0.276340600451246	6.142351277036713	7.281228227395415	-7.002384317459153	-5.660299260038819	6.617359054221294	126.534813263482	0	0	7.66050254526662	-5.352001293978517	-3.15054230455406	8.480180937714616	120.138390163324	0	0
0.18	-0.9768984789832338	-0.9500438234969281	30.81468754783512	0	0.9399999999999999	0	44.19527328037641	-14.36457792899645	-12.99982961151815	49.69732671855833	0.8673819806781922	0	0	0	44.19527328037641	-14.36457792899645	-12.99982961151815	49.69732671855833	0.8673819806781922	0	0	0	-0.8533660240106234	-0.2777847397341659	6.136526097926278	7.311999087649323	-7.005353387625645	-5.671191568397636	6.613760686806939	126.572881953406	0	0	7.709536386623011	-5.323774449848909	-3.160116385320127	8.466788234173812	120.1627332474005	0	0
